<svg width="100" height="100" viewBox="0 0 100 100" fill="none" xmlns="http://www.w3.org/2000/svg">
<g clip-path="url(#clip0_671_39)">
<rect width="100" height="100" fill="url(#paint0_radial_671_39)"/>
<path d="M20.52 70.744C19.464 70.68 18.472 70.312 17.544 69.64C16.616 69 16.152 68.072 16.152 66.856C16.152 66.696 16.152 66.536 16.152 66.376C16.184 66.216 16.216 66.056 16.248 65.896C16.44 65.064 16.952 64.36 17.784 63.784C18.648 63.208 19.512 62.936 20.376 62.968C20.696 62.424 21.176 62.152 21.816 62.152C22.36 62.152 22.808 62.424 23.16 62.968C23.416 63.032 23.624 63.064 23.784 63.064C24.008 63.064 24.2 63.016 24.36 62.92C24.552 62.856 24.664 62.76 24.696 62.632C24.76 62.408 24.856 62.296 24.984 62.296C25.144 62.296 25.24 62.36 25.272 62.488C25.336 62.712 25.304 62.984 25.176 63.304C25.08 63.656 24.744 63.864 24.168 63.928C24.008 63.928 23.768 63.864 23.448 63.736C23.48 63.864 23.496 63.976 23.496 64.072C23.496 64.2 23.496 64.344 23.496 64.504C23.496 64.6 23.496 64.696 23.496 64.792C23.496 64.92 23.48 65.048 23.448 65.176V65.32C23.448 65.608 23.528 65.848 23.688 66.04C23.88 66.264 24.072 66.312 24.264 66.184C24.392 66.12 24.488 66.088 24.552 66.088C24.648 66.088 24.664 66.168 24.6 66.328C24.312 66.744 23.944 66.952 23.496 66.952C22.984 66.952 22.584 66.728 22.296 66.28C22.008 65.832 21.848 65.448 21.816 65.128C21.752 64.52 21.576 64.088 21.288 63.832C21 63.576 20.728 63.416 20.472 63.352H20.424C19.784 63.32 19.128 63.576 18.456 64.12C17.784 64.696 17.368 65.352 17.208 66.088C17.176 66.216 17.144 66.36 17.112 66.52C17.112 66.68 17.112 66.824 17.112 66.952C17.112 67.944 17.48 68.712 18.216 69.256C18.952 69.8 19.816 70.072 20.808 70.072C22.088 70.072 23.432 69.656 24.84 68.824C26.248 67.992 27.704 66.856 29.208 65.416C30.712 63.976 32.2 62.376 33.672 60.616C33.192 60.328 32.696 59.944 32.184 59.464C31.672 59.016 31.208 58.552 30.792 58.072C30.376 57.592 29.992 57.112 29.64 56.632L29.592 56.584C29.112 56.232 28.68 55.976 28.296 55.816C27.944 55.656 27.576 55.592 27.192 55.624C27.256 55.72 27.288 55.832 27.288 55.96C27.288 56.056 27.288 56.168 27.288 56.296C27.288 56.808 27.096 57.272 26.712 57.688C26.36 58.104 25.88 58.312 25.272 58.312C25.048 58.312 24.824 58.312 24.6 58.312C24.408 58.28 24.216 58.264 24.024 58.264C22.968 58.264 22.152 58.488 21.576 58.936C21 59.352 20.616 59.688 20.424 59.944C20.392 59.848 20.376 59.752 20.376 59.656C20.376 59.56 20.376 59.464 20.376 59.368C20.376 58.632 20.6 57.912 21.048 57.208C21.528 56.472 21.912 55.96 22.2 55.672C22.424 55.448 22.856 55.208 23.496 54.952C24.136 54.664 24.76 54.52 25.368 54.52C26.008 54.52 26.52 54.728 26.904 55.144C27.288 55.08 27.64 55.096 27.96 55.192C28.312 55.256 28.648 55.352 28.968 55.48C28.552 54.616 28.264 53.752 28.104 52.888C27.944 52.024 27.896 51.192 27.96 50.392C25.944 50.2 24.264 49.432 22.92 48.088C21.576 46.744 20.904 45.08 20.904 43.096C20.904 42.456 20.984 41.784 21.144 41.08C21.304 40.376 21.56 39.656 21.912 38.92C22.36 38.056 22.856 37.272 23.4 36.568C23.976 35.864 24.6 35.224 25.272 34.648C24.856 34.808 24.424 34.888 23.976 34.888C23.816 34.888 23.64 34.872 23.448 34.84C23.288 34.808 23.128 34.744 22.968 34.648C22.744 34.52 22.584 34.344 22.488 34.12C22.392 33.864 22.344 33.624 22.344 33.4C22.344 32.984 22.456 32.632 22.68 32.344C22.776 32.248 22.856 32.2 22.92 32.2C23.016 32.2 23.064 32.376 23.064 32.728C23.064 33.016 23.24 33.272 23.592 33.496C23.976 33.688 24.408 33.832 24.888 33.928C25.368 33.992 25.736 33.992 25.992 33.928C26.216 33.8 26.376 33.736 26.472 33.736C28.136 32.584 29.976 31.72 31.992 31.144C34.04 30.568 36.104 30.184 38.184 29.992C40.296 29.768 42.264 29.656 44.088 29.656C47.128 29.656 49.72 29.944 51.864 30.52C54.008 31.064 55.72 31.8 57 32.728C57.832 32.28 58.632 31.976 59.4 31.816C60.2 31.624 60.936 31.528 61.608 31.528C62.536 31.528 63.304 31.656 63.912 31.912C64.52 32.168 64.888 32.472 65.016 32.824L64.728 33.016C64.472 32.728 64.104 32.488 63.624 32.296C63.176 32.104 62.632 32.008 61.992 32.008C61.416 32.008 60.76 32.104 60.024 32.296C59.32 32.488 58.552 32.824 57.72 33.304C58.552 34.008 59.16 34.776 59.544 35.608C59.96 36.44 60.168 37.288 60.168 38.152C60.168 39.336 59.8 40.472 59.064 41.56C58.328 42.648 57.272 43.592 55.896 44.392C54.52 45.192 52.84 45.736 50.856 46.024C53 46.44 54.6 47.304 55.656 48.616C56.744 49.928 57.288 51.384 57.288 52.984C57.288 54.2 56.984 55.416 56.376 56.632C55.768 57.848 54.84 58.968 53.592 59.992C52.376 61.016 50.856 61.832 49.032 62.44C47.208 63.08 45.08 63.4 42.648 63.4C42.456 63.4 42.264 63.4 42.072 63.4C41.88 63.4 41.688 63.384 41.496 63.352C40.472 63.416 39.64 63.688 39 64.168C39.128 64.424 39.192 64.648 39.192 64.84C39.192 65.16 39.096 65.448 38.904 65.704C38.712 65.992 38.472 66.152 38.184 66.184C37.224 66.248 36.536 66.536 36.12 67.048C35.736 67.56 35.512 67.944 35.448 68.2C35.288 67.912 35.208 67.56 35.208 67.144C35.208 66.696 35.272 66.264 35.4 65.848C35.56 65.432 35.704 65.112 35.832 64.888C35.96 64.664 36.2 64.376 36.552 64.024C36.936 63.672 37.352 63.496 37.8 63.496C38.12 63.496 38.408 63.608 38.664 63.832H38.712C38.904 63.672 39.096 63.528 39.288 63.4C39.512 63.304 39.736 63.224 39.96 63.16C38.68 62.904 37.448 62.52 36.264 62.008C33.8 64.888 31.24 67.096 28.584 68.632C25.96 70.2 23.272 70.904 20.52 70.744ZM28.056 49.768C28.376 48.104 29.16 46.728 30.408 45.64C31.656 44.52 33.208 43.96 35.064 43.96C36.088 43.96 37.144 44.152 38.232 44.536C38.712 43.832 39.064 43.112 39.288 42.376C39.512 41.64 39.624 40.92 39.624 40.216C39.624 38.968 39.304 37.88 38.664 36.952C38.024 35.992 37.144 35.448 36.024 35.32C36.024 35.384 35.896 35.496 35.64 35.656C35.288 35.88 34.888 36.184 34.44 36.568C33.992 36.92 33.752 37.544 33.72 38.44C33.688 38.856 33.496 39.464 33.144 40.264C32.792 41.064 32.312 41.688 31.704 42.136C31.32 42.424 30.904 42.568 30.456 42.568C30.104 42.568 29.8 42.456 29.544 42.232C29.448 42.136 29.4 42.072 29.4 42.04C29.4 41.976 29.464 41.944 29.592 41.944C29.72 41.944 29.848 41.928 29.976 41.896C30.328 41.832 30.616 41.576 30.84 41.128C31.096 40.648 31.192 40.2 31.128 39.784C31.032 38.344 31.32 37.176 31.992 36.28C32.696 35.384 33.544 34.92 34.536 34.888C35.4 34.856 36.2 34.936 36.936 35.128C36.776 34.968 36.6 34.776 36.408 34.552C36.248 34.296 36.168 34.008 36.168 33.688C36.168 33.4 36.312 33.176 36.6 33.016C36.888 32.856 37.176 32.776 37.464 32.776C37.624 32.776 37.768 32.808 37.896 32.872C38.12 33 38.232 33.112 38.232 33.208C38.232 33.272 38.04 33.304 37.656 33.304C37.432 33.304 37.32 33.464 37.32 33.784C37.32 34.072 37.4 34.408 37.56 34.792C37.72 35.176 37.88 35.448 38.04 35.608C38.744 36.024 39.272 36.568 39.624 37.24C40.008 37.912 40.232 38.664 40.296 39.496C40.424 39.272 40.568 39.064 40.728 38.872C40.888 38.68 41.048 38.472 41.208 38.248C41.048 38.056 40.968 37.784 40.968 37.432C40.968 37.048 41.112 36.648 41.4 36.232C41.688 35.784 42.12 35.4 42.696 35.08C43.72 34.536 45 34.264 46.536 34.264C47.08 34.264 47.576 34.312 48.024 34.408C48.472 34.504 48.824 34.664 49.08 34.888C49.304 35.112 49.416 35.288 49.416 35.416C49.448 35.544 49.448 35.64 49.416 35.704C49.288 35.672 49.144 35.656 48.984 35.656C48.824 35.624 48.664 35.608 48.504 35.608C48.12 35.608 47.8 35.656 47.544 35.752C47.192 35.912 46.936 36.136 46.776 36.424C46.616 36.712 46.424 37.048 46.2 37.432C45.976 37.784 45.56 38.152 44.952 38.536C44.44 38.888 43.832 39.064 43.128 39.064C42.616 39.064 42.136 38.936 41.688 38.68C41.208 39.064 40.872 39.464 40.68 39.88C40.52 40.264 40.408 40.696 40.344 41.176C40.28 41.304 40.232 41.384 40.2 41.416C40.008 42.6 39.576 43.72 38.904 44.776L39.864 45.208C41.048 45.816 42.136 46.648 43.128 47.704L44.28 45.928C45.144 44.68 46.152 43.32 47.304 41.848C48.488 40.344 49.784 38.872 51.192 37.432C52.6 35.992 54.04 34.728 55.512 33.64L55.608 33.544C54.52 32.616 53 31.864 51.048 31.288C49.128 30.68 46.792 30.376 44.04 30.376C42.12 30.376 40.168 30.52 38.184 30.808C36.2 31.096 34.28 31.592 32.424 32.296C30.568 32.968 28.904 33.912 27.432 35.128C25.96 36.344 24.76 37.896 23.832 39.784C23.128 41.224 22.776 42.6 22.776 43.912C22.776 45.544 23.272 46.888 24.264 47.944C25.256 49 26.52 49.608 28.056 49.768ZM47.16 45.688C49.56 45.528 51.56 45.08 53.16 44.344C54.792 43.608 56.008 42.696 56.808 41.608C57.64 40.52 58.056 39.384 58.056 38.2C58.056 36.728 57.464 35.4 56.28 34.216L55.992 34.408C55.128 35.016 54.2 35.912 53.208 37.096C52.248 38.28 51.256 39.624 50.232 41.128C49.208 42.6 48.184 44.12 47.16 45.688ZM30.168 49.72C31.256 49.56 32.376 49.176 33.528 48.568C34.712 47.928 35.896 47.048 37.08 45.928C37.208 45.8 37.32 45.688 37.416 45.592C37.544 45.464 37.656 45.336 37.752 45.208C37.496 45.144 37.24 45.096 36.984 45.064C36.728 45.032 36.472 45.016 36.216 45.016C34.808 45.016 33.56 45.464 32.472 46.36C31.384 47.256 30.616 48.376 30.168 49.72ZM34.152 60.04C35.656 58.216 37.128 56.296 38.568 54.28C40.04 52.232 41.416 50.248 42.696 48.328C41.736 47.208 40.632 46.36 39.384 45.784C39.064 45.624 38.76 45.496 38.472 45.4C38.344 45.592 38.2 45.768 38.04 45.928C37.912 46.088 37.768 46.248 37.608 46.408C37.032 46.984 36.44 47.48 35.832 47.896C35.256 48.312 34.68 48.68 34.104 49C34.52 49 34.936 49.096 35.352 49.288C35.576 49.064 35.864 48.952 36.216 48.952C36.632 48.952 37.032 49.144 37.416 49.528C37.8 49.88 37.992 50.456 37.992 51.256C37.992 51.576 37.944 51.944 37.848 52.36C37.752 52.744 37.576 53.064 37.32 53.32C37.32 53.16 37.304 52.968 37.272 52.744C37.272 52.488 37.192 52.232 37.032 51.976C36.936 51.816 36.776 51.688 36.552 51.592C36.36 51.464 36.152 51.368 35.928 51.304C35.736 51.24 35.528 51.128 35.304 50.968C35.08 50.776 34.968 50.504 34.968 50.152C34.968 49.96 35.016 49.768 35.112 49.576C34.792 49.48 34.44 49.432 34.056 49.432C33.704 49.432 33.304 49.48 32.856 49.576C31.96 49.992 31.016 50.248 30.024 50.344C29.928 50.664 29.864 51 29.832 51.352C29.8 51.672 29.784 52.008 29.784 52.36C29.784 53.512 30.024 54.664 30.504 55.816C31.016 56.968 31.832 58.056 32.952 59.08C33.144 59.24 33.336 59.4 33.528 59.56C33.72 59.72 33.928 59.88 34.152 60.04ZM42.456 62.728C44.504 62.728 46.312 62.408 47.88 61.768C49.448 61.16 50.76 60.344 51.816 59.32C52.872 58.296 53.656 57.176 54.168 55.96C54.712 54.744 54.984 53.544 54.984 52.36C54.984 50.76 54.472 49.368 53.448 48.184C52.456 47 50.92 46.344 48.84 46.216H47.4C47.304 46.216 47.208 46.232 47.112 46.264C47.016 46.264 46.904 46.264 46.776 46.264C46.424 46.872 46.056 47.48 45.672 48.088C45.288 48.664 44.92 49.24 44.568 49.816C45.144 50.904 45.512 52.024 45.672 53.176C45.704 53.176 45.72 53.16 45.72 53.128C46.104 53.384 46.6 53.512 47.208 53.512C47.464 53.512 47.704 53.48 47.928 53.416C48.152 53.32 48.28 53.176 48.312 52.984C48.408 52.728 48.536 52.6 48.696 52.6C48.792 52.6 48.872 52.68 48.936 52.84C49 52.968 49.032 53.112 49.032 53.272C49.032 53.528 48.936 53.8 48.744 54.088C48.584 54.376 48.232 54.52 47.688 54.52C47.304 54.52 46.904 54.392 46.488 54.136C46.072 53.848 45.832 53.64 45.768 53.512L45.72 53.464V54.088C45.72 55.272 45.368 56.36 44.664 57.352C43.96 58.312 43.096 58.84 42.072 58.936L41.976 58.696C43.064 58.44 43.832 57.864 44.28 56.968C44.76 56.072 45 55.128 45 54.136C45 52.888 44.712 51.688 44.136 50.536C43.688 51.304 43.24 52.04 42.792 52.744C42.376 53.416 41.976 54.056 41.592 54.664C40.792 55.944 39.976 57.144 39.144 58.264C38.344 59.384 37.528 60.456 36.696 61.48C38.616 62.312 40.536 62.728 42.456 62.728ZM51.9615 79.672C51.0655 79.672 50.3455 79.432 49.8015 78.952C49.2255 78.504 48.9375 77.864 48.9375 77.032C48.9375 76.648 49.0175 76.216 49.1775 75.736C49.3375 75.288 49.5935 74.824 49.9455 74.344C50.5855 73.448 51.5295 72.44 52.7775 71.32C53.9935 70.232 55.2735 69.192 56.6175 68.2C58.0895 67.08 59.4975 66.088 60.8415 65.224C62.2175 64.392 63.3695 63.72 64.2975 63.208C65.2575 62.728 65.8175 62.456 65.9775 62.392C66.0095 62.36 66.2015 61.864 66.5535 60.904C66.9375 59.912 67.4335 58.68 68.0415 57.208C68.6495 55.736 69.3215 54.264 70.0575 52.792C69.7055 53.304 69.3055 53.88 68.8575 54.52C68.4415 55.16 68.0255 55.752 67.6095 56.296C67.2255 56.84 66.9055 57.256 66.6495 57.544C66.2015 58.088 65.6735 58.664 65.0655 59.272C64.4575 59.88 63.8015 60.392 63.0975 60.808C62.4255 61.224 61.7375 61.432 61.0335 61.432C60.2655 61.432 59.6735 61.208 59.2575 60.76C58.8415 60.312 58.6335 59.688 58.6335 58.888C58.6335 57.992 58.8095 57.064 59.1615 56.104C59.5455 55.144 59.8815 54.392 60.1695 53.848C60.1375 53.88 60.0895 53.896 60.0255 53.896C59.8975 53.896 59.7855 53.832 59.6895 53.704C59.5935 53.576 59.5775 53.464 59.6415 53.368C59.8975 52.984 60.2815 52.472 60.7935 51.832C61.3055 51.16 61.8495 50.44 62.4255 49.672C63.0015 48.904 63.5455 48.168 64.0575 47.464C64.5695 46.76 64.9695 46.2 65.2575 45.784C65.5135 45.72 65.8495 45.624 66.2655 45.496C66.6815 45.368 67.0975 45.304 67.5135 45.304C67.9615 45.304 68.2975 45.432 68.5215 45.688C68.1695 46.232 67.6735 46.952 67.0335 47.848C66.3935 48.744 65.6895 49.72 64.9215 50.776C64.1855 51.832 63.4815 52.92 62.8095 54.04C62.1375 55.16 61.5775 56.232 61.1295 57.256C60.7135 58.248 60.5055 59.112 60.5055 59.848C60.5055 60.392 60.7935 60.664 61.3695 60.664C62.0415 60.632 62.8255 60.216 63.7215 59.416C64.6495 58.584 65.6095 57.544 66.6015 56.296C67.5935 55.048 68.5215 53.768 69.3855 52.456C70.5055 50.792 71.4655 49.48 72.2655 48.52C73.0655 47.56 73.6255 46.904 73.9455 46.552C74.2655 46.2 74.5695 45.88 74.8575 45.592C75.1455 45.272 75.4175 45 75.6735 44.776C76.1215 44.424 76.5695 44.248 77.0175 44.248C77.3695 44.248 77.6575 44.344 77.8815 44.536C78.1375 44.696 78.2655 44.888 78.2655 45.112C78.2655 45.336 78.1055 45.544 77.7855 45.736C76.7935 46.248 75.8655 46.824 75.0015 47.464C74.1375 48.072 73.3695 48.824 72.6975 49.72C71.9935 50.648 71.3855 51.848 70.8735 53.32C70.3935 54.76 69.9775 56.2 69.6255 57.64C69.3055 59.08 69.0015 60.28 68.7135 61.24C69.2255 60.92 69.9295 60.376 70.8255 59.608C71.7535 58.808 72.7135 57.864 73.7055 56.776C74.6975 55.656 75.5455 54.488 76.2495 53.272C76.4095 53.112 76.5375 53.032 76.6335 53.032C76.7295 53.032 76.8095 53.08 76.8735 53.176C76.9695 53.24 77.0015 53.32 76.9695 53.416C76.0735 54.984 75.0495 56.408 73.8975 57.688C72.7455 58.968 71.6735 60.008 70.6815 60.808C69.6895 61.608 68.9695 62.104 68.5215 62.296C67.8495 64.216 66.9535 66.248 65.8335 68.392C64.7455 70.568 63.3375 72.616 61.6095 74.536C60.8735 75.368 59.9615 76.168 58.8735 76.936C57.7855 77.736 56.6335 78.392 55.4175 78.904C54.2015 79.416 53.0495 79.672 51.9615 79.672ZM51.6735 78.904C52.4095 78.904 53.2895 78.536 54.3135 77.8C55.3055 77.064 56.3455 76.104 57.4335 74.92C58.5535 73.736 59.6415 72.456 60.6975 71.08C61.7535 69.704 62.7135 68.36 63.5775 67.048C64.4415 65.736 65.1295 64.584 65.6415 63.592C65.1935 63.816 64.5055 64.2 63.5775 64.744C62.6495 65.32 61.5935 65.992 60.4095 66.76C59.2255 67.56 58.0255 68.424 56.8095 69.352C55.6255 70.28 54.5215 71.208 53.4975 72.136C52.4415 73.096 51.6095 74.008 51.0015 74.872C50.3615 75.736 50.0415 76.52 50.0415 77.224C50.0415 77.736 50.1855 78.136 50.4735 78.424C50.7615 78.744 51.1615 78.904 51.6735 78.904ZM87.7084 61.672C86.9404 61.672 86.2844 61.432 85.7404 60.952C85.1964 60.44 84.9244 59.72 84.9244 58.792C84.9244 57.672 85.2444 56.52 85.8844 55.336C86.5244 54.12 87.2764 52.92 88.1404 51.736C89.0044 50.552 89.7564 49.464 90.3964 48.472C90.7484 47.864 90.9244 47.368 90.9244 46.984C90.9244 46.536 90.7164 46.312 90.3004 46.312C89.9804 46.312 89.5004 46.52 88.8604 46.936C88.2204 47.32 87.4044 47.992 86.4124 48.952C85.4524 49.912 84.5244 50.984 83.6284 52.168C82.7644 53.32 81.9644 54.472 81.2284 55.624C80.5244 56.776 79.9004 57.832 79.3564 58.792C78.8444 59.752 78.4604 60.488 78.2044 61C77.9804 61.096 77.6924 61.16 77.3404 61.192C77.0204 61.224 76.6844 61.24 76.3324 61.24C75.5324 61.24 75.0044 61.192 74.7484 61.096C75.1644 60.52 75.7084 59.72 76.3804 58.696C77.0844 57.672 77.8204 56.568 78.5884 55.384C79.3564 54.168 80.0604 53.032 80.7004 51.976C81.0524 51.368 81.4364 50.712 81.8524 50.008C82.2684 49.304 82.6204 48.648 82.9084 48.04C83.1964 47.4 83.3404 46.92 83.3404 46.6C83.3404 46.28 83.2124 46.12 82.9564 46.12C82.7964 46.12 82.5884 46.2 82.3324 46.36C82.0764 46.52 81.8364 46.728 81.6124 46.984C81.1324 47.464 80.5084 48.216 79.7404 49.24C79.0044 50.232 78.0284 51.704 76.8124 53.656C76.7164 53.816 76.5564 53.896 76.3324 53.896C76.0764 53.896 76.0124 53.72 76.1404 53.368C76.7164 52.44 77.3084 51.512 77.9164 50.584C78.5244 49.624 79.1324 48.728 79.7404 47.896C80.3804 47.064 80.9724 46.408 81.5164 45.928C82.0924 45.416 82.7004 45.16 83.3404 45.16C83.9484 45.16 84.4124 45.368 84.7324 45.784C85.0524 46.2 85.2124 46.68 85.2124 47.224C85.2124 47.864 85.0684 48.568 84.7804 49.336C84.9084 49.208 85.0204 49.08 85.1164 48.952C85.2444 48.824 85.3724 48.696 85.5004 48.568C86.6204 47.384 87.7084 46.52 88.7644 45.976C89.8524 45.4 90.7964 45.112 91.5964 45.112C92.2044 45.112 92.7164 45.272 93.1324 45.592C93.5804 45.912 93.8044 46.344 93.8044 46.888C93.8044 47.528 93.5804 48.296 93.1324 49.192C92.6844 50.088 92.1724 50.936 91.5964 51.736C91.0524 52.536 90.6044 53.16 90.2524 53.608C90.0284 53.928 89.5964 54.52 88.9564 55.384C88.3164 56.216 87.7724 57.08 87.3244 57.976C87.1004 58.36 86.9404 58.712 86.8444 59.032C86.7804 59.32 86.7484 59.592 86.7484 59.848C86.7484 60.584 87.0844 60.952 87.7564 60.952C88.4924 60.952 89.4044 60.52 90.4924 59.656C91.3564 58.984 92.2364 58.12 93.1324 57.064C94.0604 55.976 94.9404 54.744 95.7724 53.368C95.8684 53.208 95.9644 53.128 96.0604 53.128C96.1564 53.096 96.2204 53.08 96.2524 53.08C96.4764 53.08 96.5404 53.272 96.4444 53.656C95.5164 55.128 94.5404 56.488 93.5164 57.736C92.5244 58.984 91.5164 59.976 90.4924 60.712C89.5644 61.352 88.6364 61.672 87.7084 61.672ZM107.349 61.672C106.581 61.672 105.925 61.432 105.381 60.952C104.837 60.44 104.565 59.72 104.565 58.792C104.565 57.672 104.885 56.52 105.525 55.336C106.165 54.12 106.917 52.92 107.781 51.736C108.645 50.552 109.397 49.464 110.037 48.472C110.389 47.864 110.565 47.368 110.565 46.984C110.565 46.536 110.357 46.312 109.941 46.312C109.621 46.312 109.141 46.52 108.501 46.936C107.861 47.32 107.045 47.992 106.053 48.952C105.093 49.912 104.165 50.984 103.269 52.168C102.405 53.32 101.605 54.472 100.869 55.624C100.165 56.776 99.541 57.832 98.997 58.792C98.485 59.752 98.101 60.488 97.845 61C97.621 61.096 97.333 61.16 96.981 61.192C96.661 61.224 96.325 61.24 95.973 61.24C95.173 61.24 94.645 61.192 94.389 61.096C94.805 60.52 95.349 59.72 96.021 58.696C96.725 57.672 97.461 56.568 98.229 55.384C98.997 54.168 99.701 53.032 100.341 51.976C100.693 51.368 101.077 50.712 101.493 50.008C101.909 49.304 102.261 48.648 102.549 48.04C102.837 47.4 102.981 46.92 102.981 46.6C102.981 46.28 102.853 46.12 102.597 46.12C102.437 46.12 102.229 46.2 101.973 46.36C101.717 46.52 101.477 46.728 101.253 46.984C100.773 47.464 100.149 48.216 99.381 49.24C98.645 50.232 97.669 51.704 96.453 53.656C96.357 53.816 96.197 53.896 95.973 53.896C95.717 53.896 95.653 53.72 95.781 53.368C96.357 52.44 96.949 51.512 97.557 50.584C98.165 49.624 98.773 48.728 99.381 47.896C100.021 47.064 100.613 46.408 101.157 45.928C101.733 45.416 102.341 45.16 102.981 45.16C103.589 45.16 104.053 45.368 104.373 45.784C104.693 46.2 104.853 46.68 104.853 47.224C104.853 47.864 104.709 48.568 104.421 49.336C104.549 49.208 104.661 49.08 104.757 48.952C104.885 48.824 105.013 48.696 105.141 48.568C106.261 47.384 107.349 46.52 108.405 45.976C109.493 45.4 110.437 45.112 111.237 45.112C111.845 45.112 112.357 45.272 112.773 45.592C113.221 45.912 113.445 46.344 113.445 46.888C113.445 47.528 113.221 48.296 112.773 49.192C112.325 50.088 111.813 50.936 111.237 51.736C110.693 52.536 110.245 53.16 109.893 53.608C109.669 53.928 109.237 54.52 108.597 55.384C107.957 56.216 107.413 57.08 106.965 57.976C106.741 58.36 106.581 58.712 106.485 59.032C106.421 59.32 106.389 59.592 106.389 59.848C106.389 60.584 106.725 60.952 107.397 60.952C108.133 60.952 109.045 60.52 110.133 59.656C110.997 58.984 111.877 58.12 112.773 57.064C113.701 55.976 114.581 54.744 115.413 53.368C115.509 53.208 115.605 53.128 115.701 53.128C115.797 53.096 115.861 53.08 115.893 53.08C116.117 53.08 116.181 53.272 116.085 53.656C115.157 55.128 114.181 56.488 113.157 57.736C112.165 58.984 111.157 59.976 110.133 60.712C109.205 61.352 108.277 61.672 107.349 61.672Z" fill="white"/>
</g>
<defs>
<radialGradient id="paint0_radial_671_39" cx="0" cy="0" r="1" gradientUnits="userSpaceOnUse" gradientTransform="translate(50 50) rotate(90) scale(50)">
<stop stop-color="#5B414B"/>
<stop offset="1" stop-color="#2C1C2F"/>
</radialGradient>
<clipPath id="clip0_671_39">
<rect width="100" height="100" fill="white"/>
</clipPath>
</defs>
</svg>
